<?xml version="1.0" encoding="utf-8"?>
<!-- Generator: Adobe Illustrator 23.0.2, SVG Export Plug-In . SVG Version: 6.00 Build 0)  -->
<svg version="1.1" id="Layer_1" xmlns="http://www.w3.org/2000/svg" xmlns:xlink="http://www.w3.org/1999/xlink" x="0px" y="0px"
	 viewBox="0 0 388.75 400" style="enable-background:new 0 0 388.75 400;" xml:space="preserve">
<path d="M182.15,0c4.48,0,8.96,0,13.45,0c8.79,1.16,17.61,2.13,26.36,3.51C301.79,16.16,368.24,79.92,383.88,159
	c2.07,10.48,3.27,21.13,4.87,31.71c0,6.52,0,13.04,0,19.56c-0.37,1.5-0.84,2.98-1.08,4.5c-1.57,10.24-2.4,20.64-4.73,30.7
	c-24.64,106.22-129.22,172.7-235.89,150.14c-15.3-3.24-30.08-8.05-44.62-15.26c7.39-11.15,14.49-21.86,21.46-32.39
	c-0.72-0.77-0.83-0.99-1-1.05c-1.13-0.43-2.28-0.83-3.41-1.25c-58.96-21.76-97.23-62.7-113.96-123.39
	c-2.51-9.11-3.72-18.58-5.53-27.89c0-9.78,0-19.56,0-29.34c1.42-7.95,2.55-15.97,4.3-23.85C18.95,75.44,70.3,18.52,153.92,3.7
	C163.26,2.04,172.74,1.21,182.15,0z M339.78,157.91c-8.45-76.74-78.8-149.66-174.8-144.39C74.08,18.5,3.38,99.58,9.97,191.67
	c6.59,92.14,89.09,161.84,181.63,152.75c45.45-4.46,82.98-24.91,112.19-60.07c18.34-22.08,30.04-47.33,34.99-75.68
	c-1.28-0.36-1.67-0.56-2.06-0.56c-31.98-0.04-63.97-0.01-95.95-0.16c-3.56-0.02-4.36,1.66-4.94,4.65
	c-4.4,22.97-9.04,45.91-13.36,68.9c-0.75,3.96-2.25,5.37-6.34,5.26c-10.59-0.28-21.18-0.09-31.78-0.09c-4.58,0-9.16,0-14.25,0
	c5.05-26.73,9.9-52.37,14.88-78.72c-21.9,0-42.82,0-64.57,0c3.56-16.91,6.98-33.13,10.46-49.66c2.71,0,4.93,0,7.15,0
	c17.11,0,34.23-0.09,51.34,0.07c3.66,0.03,5.52-0.92,6.19-4.8c2.33-13.43,4.95-26.81,7.5-40.19c2.39-12.52,4.83-25.03,7.24-37.48
	c17.74,0,34.79,0,52.38,0c-5.36,27.43-10.63,54.46-16.01,82.01C278.03,157.91,308.66,157.91,339.78,157.91z"/>
</svg>
