<?xml version="1.0" encoding="utf-8"?>
<!-- Generator: Adobe Illustrator 23.0.2, SVG Export Plug-In . SVG Version: 6.00 Build 0)  -->
<svg version="1.1" id="Layer_1" xmlns="http://www.w3.org/2000/svg" xmlns:xlink="http://www.w3.org/1999/xlink" x="0px" y="0px"
	 viewBox="0 0 142.91 141.73" style="enable-background:new 0 0 142.91 141.73;" xml:space="preserve">
<style type="text/css">
	.st0{fill-rule:evenodd;clip-rule:evenodd;}
	.st1{fill-rule:evenodd;clip-rule:evenodd;fill:none;}
</style>
<path class="st0" d="M14.26,0h114.08c7.84,0,14.26,6.02,14.26,13.38v114.96c0,7.36-6.42,13.38-14.26,13.38H14.26
	C6.42,141.73,0,135.71,0,128.35V13.38C0,6.02,6.42,0,14.26,0L14.26,0z M82.75,22.26c-5.23-4.63-13.86-4.56-19.17,0.14L18.47,62.29
	c-5.32,4.7-5.39,12.33-0.16,16.96l45.47,40.23c5.23,4.62,13.86,4.56,19.17-0.14l45.11-39.89c5.32-4.7,5.39-12.33,0.16-16.96
	L82.75,22.26L82.75,22.26z"/>
<path class="st1" d="M39.63,69.62c24.82-10.9,46.68-12.8,65.99-6.31l0.34,0.12c0.46,1.91,0.74,3.88,0.81,5.91l0,0.18
	c-0.17-0.01-0.34-0.03-0.51-0.07c-23.38-5.13-45.1-1-65.85,7.35c-0.44-1.87-0.7-3.79-0.77-5.77C39.63,70.56,39.62,70.09,39.63,69.62
	L39.63,69.62z"/>
<path class="st0" d="M72.19,39.26c18.53-0.47,34.07,13.27,34.7,30.68c0.63,17.4-13.89,31.9-32.43,32.37
	c-18.53,0.47-34.07-13.27-34.69-30.68C39.14,54.22,53.66,39.73,72.19,39.26L72.19,39.26z M39.63,69.62c-0.01,0.47,0,0.94,0.02,1.41
	c0.07,1.98,0.34,3.9,0.77,5.77c20.75-8.35,42.47-12.48,65.85-7.35c0.17,0.04,0.34,0.06,0.51,0.07l0-0.18
	c-0.07-2.03-0.35-4-0.81-5.91l-0.34-0.12C86.31,56.82,64.45,58.72,39.63,69.62L39.63,69.62z"/>
</svg>
