<?xml version="1.0" encoding="utf-8"?>
<!-- Generator: Adobe Illustrator 23.0.2, SVG Export Plug-In . SVG Version: 6.00 Build 0)  -->
<svg version="1.1" id="Layer_1" xmlns="http://www.w3.org/2000/svg" xmlns:xlink="http://www.w3.org/1999/xlink" x="0px" y="0px"
	 viewBox="0 0 118.41 141.73" style="enable-background:new 0 0 118.41 141.73;" xml:space="preserve">
<style type="text/css">
	.st0{fill-rule:evenodd;clip-rule:evenodd;}
	.st1{fill-rule:evenodd;clip-rule:evenodd;fill:#5E5F5F;}
	.st2{fill-rule:evenodd;clip-rule:evenodd;fill:none;stroke:#000000;stroke-width:5;stroke-miterlimit:10;}
	.st3{fill:#FFFFFF;}
</style>
<rect x="2.79" y="61.96" class="st0" width="112.94" height="40.82"/>
<rect x="2.79" y="102.79" class="st1" width="112.94" height="26.94"/>
<rect x="2.79" y="2.79" class="st2" width="112.94" height="136.71"/>
<path class="st3" d="M65.76,86.52c-0.1-0.04-0.2-0.02-0.29-0.02c-2.51,0-5.03,0-7.54,0c-0.03,0-0.07,0-0.1,0
	c-0.29,0-0.27,0.02-0.27-0.27c0-1.9,0-3.79,0-5.69c0-0.29-0.03-0.27,0.27-0.27c5.27,0,10.55,0,15.82,0c0.03,0,0.07,0,0.1,0
	c0.13-0.02,0.17,0.05,0.17,0.17c0.09,2.42-0.08,4.8-0.8,7.13c-0.85,2.74-2.27,5.11-4.4,7.04c-2.02,1.82-4.37,3.02-7.05,3.45
	c-4.96,0.8-9.21-0.64-12.69-4.27c-2.1-2.19-3.37-4.84-4.02-7.79c-0.3-1.37-0.43-2.76-0.39-4.16c0.09-3.33,0.97-6.42,2.9-9.16
	c2.13-3.02,4.99-5.01,8.6-5.83c4.32-0.98,8.26-0.07,11.76,2.62c2.46,1.88,4.17,4.31,5.11,7.27c0.05,0.14,0.08,0.29,0.12,0.43
	c0.02,0.08,0,0.13-0.09,0.13c-0.05,0-0.1,0-0.15,0c-2.45,0-4.91,0-7.36,0c-0.18,0-0.28-0.05-0.36-0.22
	c-0.66-1.25-1.56-2.28-2.81-2.96c-1.84-0.99-3.76-1.06-5.68-0.28c-2.05,0.82-3.42,2.33-4.25,4.36c-0.56,1.38-0.75,2.82-0.72,4.3
	c0.02,1.3,0.21,2.57,0.67,3.79c0.61,1.65,1.61,3.02,3.1,3.98c1.3,0.84,2.73,1.22,4.29,1.13c1.08-0.07,2.11-0.3,3.06-0.83
	c1.5-0.83,2.44-2.1,2.93-3.72C65.72,86.75,65.76,86.64,65.76,86.52z"/>
</svg>
