<?xml version="1.0" encoding="utf-8"?>
<!-- Generator: Adobe Illustrator 23.0.2, SVG Export Plug-In . SVG Version: 6.00 Build 0)  -->
<svg version="1.1" id="Layer_1" xmlns="http://www.w3.org/2000/svg" xmlns:xlink="http://www.w3.org/1999/xlink" x="0px" y="0px"
	 viewBox="0 0 118.41 141.73" style="enable-background:new 0 0 118.41 141.73;" xml:space="preserve">
<style type="text/css">
	.st0{fill-rule:evenodd;clip-rule:evenodd;fill:#AEADAE;}
	.st1{fill-rule:evenodd;clip-rule:evenodd;fill:none;stroke:#000000;stroke-width:3;stroke-miterlimit:10;}
</style>
<rect x="5.77" y="44.85" class="st0" width="65.26" height="23.59"/>
<rect x="5.77" y="5.66" class="st1" width="65.26" height="78.99"/>
<rect x="47.48" y="96.15" class="st0" width="65.26" height="23.59"/>
<rect x="47.48" y="56.95" class="st1" width="65.26" height="78.99"/>
<g>
	<polygon points="39.92,117.26 27.59,101.15 27.59,111.28 10.39,111.28 10.39,123.25 27.59,123.25 27.59,133.38 	"/>
	<rect x="3.77" y="91.02" width="11.29" height="32.22"/>
</g>
<g>
	<polygon points="77.6,25.41 89.92,41.52 89.92,31.39 107.13,31.39 107.13,19.42 89.92,19.42 89.92,9.29 	"/>
	<rect x="102.45" y="19.42" transform="matrix(-1 -1.224647e-16 1.224647e-16 -1 216.1948 71.0704)" width="11.29" height="32.22"/>
</g>
</svg>
